<svg version="1.0" xmlns="http://www.w3.org/2000/svg"
 width="160.000000pt" height="160.000000pt" viewBox="0 0 160.000000 160.000000"
 preserveAspectRatio="xMidYMid meet">
<metadata>
Created by potrace 1.10, written by Peter Selinger 2001-2011
</metadata>
<g transform="translate(0.000000,160.000000) scale(0.100000,-0.100000)"
fill="#000000" stroke="none">
<path d="M639 1546 c-31 -6 -67 -19 -80 -27 -13 -8 -42 -20 -65 -27 -110 -32
-284 -187 -347 -311 -22 -42 -34 -78 -29 -83 5 -5 14 9 22 33 9 26 29 53 54
74 48 38 139 95 153 95 5 0 38 -43 74 -95 35 -52 67 -95 71 -95 4 0 -1 -15
-11 -32 -29 -51 -60 -145 -79 -240 l-17 -86 -109 -55 c-61 -30 -115 -53 -122
-50 -13 5 -79 142 -90 186 -24 99 -31 -59 -8 -173 23 -112 69 -222 114 -273
22 -24 37 -47 33 -50 -18 -19 189 -182 300 -236 99 -48 270 -70 397 -53 61 9
78 15 90 34 8 13 25 33 38 46 28 29 28 32 -5 32 -40 0 -252 45 -263 56 -8 8
-30 146 -43 270 l-5 40 71 44 c39 24 106 77 149 118 l77 74 158 -49 158 -48 3
-148 3 -147 27 6 c36 9 66 27 32 20 -18 -4 -16 -2 9 10 18 8 36 13 39 9 8 -7
-34 -49 -66 -66 -15 -7 -56 -40 -92 -72 -68 -62 -177 -137 -197 -137 -7 0 -13
-6 -13 -14 0 -8 -7 -16 -15 -20 -8 -3 -15 -1 -15 5 0 6 -9 1 -19 -12 -11 -13
-16 -25 -12 -27 25 -9 190 86 290 167 61 49 164 173 151 181 -7 4 -5 12 5 20
48 40 93 195 97 334 3 83 0 98 -18 123 -33 44 -48 40 -84 -24 -18 -32 -52 -89
-77 -126 -38 -60 -46 -67 -66 -61 -12 4 -83 27 -157 50 l-135 42 -25 89 c-14
50 -44 128 -67 175 l-41 86 68 83 c37 46 81 97 98 113 l31 29 63 -23 c35 -13
96 -38 137 -56 40 -19 75 -34 78 -34 2 0 -3 13 -11 29 -14 26 -36 38 -91 48
-11 2 -49 15 -85 29 -35 14 -72 26 -82 27 -10 1 -48 32 -85 69 -55 56 -64 68
-46 68 12 0 25 -5 28 -10 4 -6 15 -8 26 -5 15 5 18 3 13 -12 -5 -14 -4 -15 4
-4 7 9 16 11 28 6 11 -5 21 -9 24 -9 39 -10 149 -77 196 -120 65 -59 89 -64
48 -11 -32 42 -126 108 -211 148 -66 30 -73 31 -231 35 -90 2 -194 -1 -230 -7
-36 -6 -68 -9 -70 -6 -13 13 101 29 210 29 70 1 119 4 110 8 -28 11 -203 7
-263 -6z m343 -105 l83 -78 -59 -64 c-33 -35 -76 -85 -98 -112 l-39 -49 -104
1 c-89 2 -190 -8 -246 -25 -11 -3 -35 24 -83 93 -36 54 -66 103 -66 109 0 12
174 184 187 185 64 4 128 11 132 14 2 3 51 5 107 5 l103 0 83 -79z m-571 -47
c-28 -30 -51 -60 -51 -65 0 -6 -4 -8 -8 -5 -5 3 -40 -15 -77 -39 -37 -25 -70
-45 -73 -45 -13 0 36 43 82 72 28 18 78 56 110 85 33 29 61 53 64 53 2 0 -19
-25 -47 -56z m459 -290 c20 -24 127 -312 119 -318 -2 -1 -42 -36 -90 -77 -47
-41 -98 -84 -115 -97 l-29 -23 35 22 c42 27 81 59 135 108 58 54 76 61 30 12
-54 -57 -189 -157 -230 -171 -30 -10 -40 -8 -92 19 -61 31 -104 60 -90 61 5 0
21 -8 35 -19 46 -31 111 -61 116 -53 3 5 -1 9 -9 9 -21 0 -145 78 -204 128
-29 25 -56 45 -59 45 -9 -1 52 -57 93 -87 17 -12 25 -23 19 -23 -5 0 -35 22
-65 49 -64 57 -68 74 -43 183 20 87 63 200 74 193 4 -3 10 4 13 14 4 15 17 21
63 26 33 3 66 8 74 9 38 8 212 1 220 -10z m661 -238 c30 -67 22 -88 -11 -26
-16 30 -29 61 -30 68 0 23 22 1 41 -42z m-41 -21 c20 12 31 -38 26 -113 -3
-42 -7 -84 -9 -92 -2 -8 -7 -32 -11 -52 -5 -21 -12 -38 -17 -38 -5 0 -8 -3 -7
-7 4 -15 -30 -68 -61 -96 -31 -27 -31 -27 -32 -5 -1 18 -4 15 -12 -12 -11 -31
-12 -22 -15 83 l-3 118 29 24 c25 21 90 125 78 125 -2 0 -21 -27 -41 -60 -25
-41 -43 -60 -56 -60 -17 0 -18 3 -9 20 6 11 15 18 19 15 5 -2 8 3 7 13 0 9 5
16 12 14 8 -1 11 2 7 7 -3 6 14 39 37 75 24 36 44 58 46 50 2 -8 7 -12 12 -9z
m-950 -229 c36 -24 86 -54 111 -66 l47 -23 7 -81 c3 -45 12 -112 20 -151 10
-53 11 -73 2 -81 -7 -7 -59 -24 -117 -39 -58 -15 -110 -31 -117 -37 -14 -11
-32 -2 -113 52 -87 59 -157 127 -163 157 -3 16 -14 62 -25 103 -26 98 -33 152
-23 169 5 7 57 37 116 66 l107 52 42 -39 c22 -21 70 -58 106 -82z m-440 63 c0
8 11 -1 24 -20 18 -27 21 -36 11 -44 -8 -6 -10 -17 -6 -25 5 -8 5 -26 0 -40
-4 -16 -7 -19 -8 -7 -1 9 -1 20 0 23 0 4 -4 10 -9 13 -6 3 -13 22 -16 42 -3
20 -8 44 -12 55 -5 16 -4 16 5 4 9 -12 11 -12 11 -1z m37 -181 c-3 -8 -6 -5
-6 6 -1 11 2 17 5 13 3 -3 4 -12 1 -19z m663 -316 c21 -4 22 -6 7 -11 -10 -4
6 -7 35 -7 60 -1 183 -25 156 -32 -10 -2 -18 -8 -18 -13 0 -5 -6 -9 -14 -9 -8
0 -21 -7 -29 -15 -16 -16 -162 -31 -153 -16 3 5 -18 6 -47 4 -35 -3 -62 1 -82
11 -16 9 -37 16 -46 16 -8 0 -19 4 -25 9 -5 5 -18 11 -29 13 -11 2 21 14 70
27 50 12 97 26 105 31 8 6 22 7 30 4 8 -4 26 -9 40 -12z m-225 -100 c-6 -7
-68 32 -73 46 -2 6 15 0 37 -15 23 -14 39 -28 36 -31z"/>
<path d="M909 1223 c-13 -16 -12 -17 4 -4 9 7 17 15 17 17 0 8 -8 3 -21 -13z"/>
<path d="M670 1170 c-34 -5 -19 -7 59 -8 57 0 102 1 100 3 -9 8 -117 12 -159
5z"/>
<path d="M578 1163 c-41 -6 -34 -20 7 -15 19 2 35 8 35 13 0 5 -3 8 -7 8 -5
-1 -20 -4 -35 -6z"/>
<path d="M510 1140 c-8 -5 -10 -10 -5 -10 6 0 17 5 25 10 8 5 11 10 5 10 -5 0
-17 -5 -25 -10z"/>
<path d="M538 1073 c7 -3 16 -2 19 1 4 3 -2 6 -13 5 -11 0 -14 -3 -6 -6z"/>
<path d="M486 1035 c-9 -26 -7 -32 5 -12 6 10 9 21 6 23 -2 3 -7 -2 -11 -11z"/>
<path d="M461 969 c-6 -18 -11 -37 -10 -43 0 -6 7 7 15 28 8 22 12 41 10 43
-2 2 -9 -10 -15 -28z"/>
<path d="M441 894 c0 -11 3 -14 6 -6 3 7 2 16 -1 19 -3 4 -6 -2 -5 -13z"/>
<path d="M431 854 c0 -11 3 -14 6 -6 3 7 2 16 -1 19 -3 4 -6 -2 -5 -13z"/>
<path d="M240 331 c0 -26 231 -194 246 -179 2 3 -24 22 -59 42 -34 20 -91 62
-125 92 -34 31 -62 51 -62 45z"/>
<path d="M720 174 c-16 -10 -18 -13 -5 -8 11 4 31 7 44 7 18 -1 20 1 10 8 -18
11 -19 11 -49 -7z"/>
<path d="M1060 1415 c13 -14 26 -25 28 -25 3 0 -5 11 -18 25 -13 14 -26 25
-28 25 -3 0 5 -11 18 -25z"/>
<path d="M1369 1292 c7 -13 10 -30 7 -37 -3 -9 0 -12 8 -9 17 6 10 38 -12 56
-14 12 -14 10 -3 -10z"/>
<path d="M1402 1222 c2 -5 20 -49 42 -98 21 -49 45 -107 54 -129 38 -97 50
-82 16 21 -28 87 -91 214 -106 214 -5 0 -8 -4 -6 -8z"/>
<path d="M1370 1219 c0 -4 12 -33 27 -65 15 -33 40 -95 55 -139 17 -49 26 -66
23 -43 -8 50 -103 275 -105 247z"/>
<path d="M71 994 c0 -11 3 -14 6 -6 3 7 2 16 -1 19 -3 4 -6 -2 -5 -13z"/>
<path d="M55 930 c-4 -23 -5 -44 -2 -46 3 -3 8 13 12 36 4 23 5 44 2 46 -3 3
-8 -13 -12 -36z"/>
<path d="M401 954 c0 -11 3 -14 6 -6 3 7 2 16 -1 19 -3 4 -6 -2 -5 -13z"/>
<path d="M262 719 c-45 -23 -81 -44 -78 -46 2 -2 44 16 92 41 49 25 85 45 79
45 -5 1 -47 -18 -93 -40z"/>
<path d="M1250 299 c-35 -33 -90 -77 -122 -96 -32 -20 -56 -38 -54 -40 12 -12
158 92 221 156 60 62 28 48 -45 -20z"/>
</g>
</svg>